<mxfile host="app.diagrams.net" modified="2023-03-01T09:18:53.357Z" agent="5.0 (Windows NT 10.0; Win64; x64) AppleWebKit/537.36 (KHTML, like Gecko) Chrome/110.0.0.0 Safari/537.36" version="20.6.0" etag="c8G2DfKMiYqQ9sebRB18" type="github">
  <diagram id="yvLBhmIY6jE9eQhqj9Gj" name="第 1 页">
    <mxGraphModel dx="808" dy="409" grid="1" gridSize="10" guides="1" tooltips="1" connect="1" arrows="1" fold="1" page="1" pageScale="1" pageWidth="827" pageHeight="1169" math="1" shadow="0">
      <root>
        <mxCell id="0" />
        <mxCell id="1" parent="0" />
        <mxCell id="uuSqEJcfeEPoWMQ0iej--12" value="$$n^8$$" style="ellipse;whiteSpace=wrap;html=1;aspect=fixed;" vertex="1" parent="1">
          <mxGeometry x="360" y="80" width="40" height="40" as="geometry" />
        </mxCell>
        <mxCell id="uuSqEJcfeEPoWMQ0iej--13" value="" style="endArrow=classic;html=1;rounded=0;exitX=0.5;exitY=1;exitDx=0;exitDy=0;entryX=0.5;entryY=0;entryDx=0;entryDy=0;" edge="1" parent="1" source="uuSqEJcfeEPoWMQ0iej--12" target="uuSqEJcfeEPoWMQ0iej--14">
          <mxGeometry width="50" height="50" relative="1" as="geometry">
            <mxPoint x="420" y="280" as="sourcePoint" />
            <mxPoint x="320" y="160" as="targetPoint" />
          </mxGeometry>
        </mxCell>
        <mxCell id="uuSqEJcfeEPoWMQ0iej--14" value="$$n^4$$" style="ellipse;whiteSpace=wrap;html=1;aspect=fixed;" vertex="1" parent="1">
          <mxGeometry x="290" y="140" width="40" height="40" as="geometry" />
        </mxCell>
        <mxCell id="uuSqEJcfeEPoWMQ0iej--15" value="" style="endArrow=classic;html=1;rounded=0;exitX=0.5;exitY=1;exitDx=0;exitDy=0;entryX=0.5;entryY=0;entryDx=0;entryDy=0;" edge="1" parent="1" source="uuSqEJcfeEPoWMQ0iej--12" target="uuSqEJcfeEPoWMQ0iej--16">
          <mxGeometry width="50" height="50" relative="1" as="geometry">
            <mxPoint x="494" y="120" as="sourcePoint" />
            <mxPoint x="434" y="160" as="targetPoint" />
          </mxGeometry>
        </mxCell>
        <mxCell id="uuSqEJcfeEPoWMQ0iej--16" value="$$n^4$$" style="ellipse;whiteSpace=wrap;html=1;aspect=fixed;" vertex="1" parent="1">
          <mxGeometry x="430" y="140" width="40" height="40" as="geometry" />
        </mxCell>
        <mxCell id="uuSqEJcfeEPoWMQ0iej--21" value="" style="endArrow=classic;html=1;rounded=0;exitX=0.5;exitY=1;exitDx=0;exitDy=0;entryX=0.5;entryY=0;entryDx=0;entryDy=0;" edge="1" parent="1" target="uuSqEJcfeEPoWMQ0iej--22">
          <mxGeometry width="50" height="50" relative="1" as="geometry">
            <mxPoint x="310" y="180" as="sourcePoint" />
            <mxPoint x="250" y="220" as="targetPoint" />
          </mxGeometry>
        </mxCell>
        <mxCell id="uuSqEJcfeEPoWMQ0iej--22" value="$$n*n$$" style="ellipse;whiteSpace=wrap;html=1;aspect=fixed;" vertex="1" parent="1">
          <mxGeometry x="250" y="200" width="40" height="40" as="geometry" />
        </mxCell>
        <mxCell id="uuSqEJcfeEPoWMQ0iej--23" value="" style="endArrow=classic;html=1;rounded=0;exitX=0.5;exitY=1;exitDx=0;exitDy=0;entryX=0.5;entryY=0;entryDx=0;entryDy=0;" edge="1" parent="1" target="uuSqEJcfeEPoWMQ0iej--24">
          <mxGeometry width="50" height="50" relative="1" as="geometry">
            <mxPoint x="310" y="180" as="sourcePoint" />
            <mxPoint x="364" y="220" as="targetPoint" />
          </mxGeometry>
        </mxCell>
        <mxCell id="uuSqEJcfeEPoWMQ0iej--24" value="$$n*n$$" style="ellipse;whiteSpace=wrap;html=1;aspect=fixed;" vertex="1" parent="1">
          <mxGeometry x="330" y="200" width="40" height="40" as="geometry" />
        </mxCell>
        <mxCell id="uuSqEJcfeEPoWMQ0iej--25" value="" style="endArrow=classic;html=1;rounded=0;exitX=0.5;exitY=1;exitDx=0;exitDy=0;entryX=0.5;entryY=0;entryDx=0;entryDy=0;" edge="1" parent="1" target="uuSqEJcfeEPoWMQ0iej--26">
          <mxGeometry width="50" height="50" relative="1" as="geometry">
            <mxPoint x="450" y="180" as="sourcePoint" />
            <mxPoint x="390" y="220" as="targetPoint" />
          </mxGeometry>
        </mxCell>
        <mxCell id="uuSqEJcfeEPoWMQ0iej--26" value="$$n*n$$" style="ellipse;whiteSpace=wrap;html=1;aspect=fixed;" vertex="1" parent="1">
          <mxGeometry x="390" y="200" width="40" height="40" as="geometry" />
        </mxCell>
        <mxCell id="uuSqEJcfeEPoWMQ0iej--27" value="" style="endArrow=classic;html=1;rounded=0;exitX=0.5;exitY=1;exitDx=0;exitDy=0;entryX=0.5;entryY=0;entryDx=0;entryDy=0;" edge="1" parent="1" target="uuSqEJcfeEPoWMQ0iej--28">
          <mxGeometry width="50" height="50" relative="1" as="geometry">
            <mxPoint x="450" y="180" as="sourcePoint" />
            <mxPoint x="504" y="220" as="targetPoint" />
          </mxGeometry>
        </mxCell>
        <mxCell id="uuSqEJcfeEPoWMQ0iej--28" value="$$n*n$$" style="ellipse;whiteSpace=wrap;html=1;aspect=fixed;" vertex="1" parent="1">
          <mxGeometry x="470" y="200" width="40" height="40" as="geometry" />
        </mxCell>
        <mxCell id="uuSqEJcfeEPoWMQ0iej--29" value="$$*$$" style="text;html=1;strokeColor=none;fillColor=none;align=center;verticalAlign=middle;whiteSpace=wrap;rounded=0;" vertex="1" parent="1">
          <mxGeometry x="280" y="180" width="60" height="30" as="geometry" />
        </mxCell>
        <mxCell id="uuSqEJcfeEPoWMQ0iej--30" value="$$*$$" style="text;html=1;strokeColor=none;fillColor=none;align=center;verticalAlign=middle;whiteSpace=wrap;rounded=0;" vertex="1" parent="1">
          <mxGeometry x="420" y="180" width="60" height="30" as="geometry" />
        </mxCell>
        <mxCell id="uuSqEJcfeEPoWMQ0iej--31" value="$$*$$" style="text;html=1;strokeColor=none;fillColor=none;align=center;verticalAlign=middle;whiteSpace=wrap;rounded=0;" vertex="1" parent="1">
          <mxGeometry x="350" y="120" width="60" height="30" as="geometry" />
        </mxCell>
      </root>
    </mxGraphModel>
  </diagram>
</mxfile>
